<svg xmlns="http://www.w3.org/2000/svg" xmlns:xlink="http://www.w3.org/1999/xlink" width="70" zoomAndPan="magnify" viewBox="0 0 52.5 52.499999" height="70" preserveAspectRatio="xMidYMid meet" version="1.0"><defs><g/><clipPath id="99f747475f"><path d="M 2.371094 1.792969 L 33.644531 1.792969 L 33.644531 33.066406 L 2.371094 33.066406 Z M 2.371094 1.792969 " clip-rule="nonzero"/></clipPath><clipPath id="6e78c6c882"><path d="M 8.382812 8.441406 L 39.554688 8.441406 L 39.554688 38.261719 L 8.382812 38.261719 Z M 8.382812 8.441406 " clip-rule="nonzero"/></clipPath></defs><g clip-path="url(#99f747475f)"><path fill="#7ed957" d="M 32.699219 16.761719 L 18.644531 2.707031 C 18.074219 2.144531 17.292969 1.792969 16.433594 1.792969 L 5.496094 1.792969 C 3.769531 1.792969 2.371094 3.191406 2.371094 4.917969 L 2.371094 15.855469 C 2.371094 16.722656 2.722656 17.503906 3.292969 18.066406 L 17.355469 32.132812 C 17.917969 32.695312 18.699219 33.046875 19.558594 33.046875 C 20.417969 33.046875 21.207031 32.695312 21.769531 32.132812 L 32.707031 21.191406 C 33.269531 20.621094 33.621094 19.839844 33.621094 18.980469 C 33.621094 18.113281 33.269531 17.332031 32.699219 16.761719 Z M 7.839844 9.605469 C 6.542969 9.605469 5.496094 8.558594 5.496094 7.261719 C 5.496094 5.964844 6.542969 4.917969 7.839844 4.917969 C 9.136719 4.917969 10.183594 5.964844 10.183594 7.261719 C 10.183594 8.558594 9.136719 9.605469 7.839844 9.605469 Z M 7.839844 9.605469 " fill-opacity="1" fill-rule="nonzero"/></g><g clip-path="url(#6e78c6c882)"><path fill="#231f20" d="M 9.328125 8.449219 C 9.375 8.449219 9.425781 8.457031 9.472656 8.464844 C 9.472656 8.464844 9.472656 8.464844 9.476562 8.464844 L 14.234375 9.277344 C 14.535156 9.328125 14.789062 9.535156 14.902344 9.820312 C 14.902344 9.824219 14.902344 9.824219 14.902344 9.824219 L 17.109375 15.484375 L 38.65625 16.023438 C 38.902344 16.027344 39.136719 16.140625 39.296875 16.328125 C 39.457031 16.515625 39.535156 16.761719 39.503906 17.007812 L 38.316406 26.847656 C 38.265625 27.261719 37.925781 27.585938 37.511719 27.621094 L 22.148438 28.839844 L 19.105469 31.234375 C 19.101562 31.238281 19.097656 31.242188 19.09375 31.242188 C 19.09375 31.246094 19.089844 31.246094 19.085938 31.25 C 19.082031 31.253906 19.078125 31.253906 19.074219 31.257812 C 18.519531 31.671875 18.378906 32.238281 18.460938 32.550781 C 18.503906 32.730469 18.570312 32.863281 18.734375 32.960938 C 18.898438 33.0625 19.175781 33.136719 19.65625 33.109375 C 19.660156 33.109375 19.660156 33.109375 19.660156 33.109375 C 19.675781 33.109375 19.695312 33.109375 19.710938 33.109375 C 19.710938 33.109375 19.714844 33.109375 19.71875 33.109375 L 38.039062 33.164062 C 38.523438 33.160156 38.925781 33.5625 38.925781 34.046875 C 38.921875 34.527344 38.515625 34.929688 38.035156 34.921875 L 38.03125 34.921875 L 36.695312 34.917969 C 37.191406 35.238281 37.523438 35.792969 37.523438 36.421875 C 37.523438 37.402344 36.722656 38.203125 35.742188 38.203125 C 34.761719 38.203125 33.960938 37.402344 33.960938 36.421875 C 33.960938 35.789062 34.292969 35.226562 34.796875 34.910156 L 19.710938 34.867188 C 20.253906 35.175781 20.625 35.757812 20.625 36.421875 C 20.625 37.402344 19.820312 38.203125 18.839844 38.203125 C 17.859375 38.203125 17.058594 37.402344 17.058594 36.421875 C 17.058594 35.570312 17.664062 34.851562 18.464844 34.679688 C 17.707031 34.410156 17.125 33.859375 16.765625 33.011719 C 16.757812 33.003906 16.753906 32.992188 16.75 32.980469 C 16.476562 31.875 16.964844 30.675781 17.976562 29.894531 C 17.976562 29.890625 17.980469 29.890625 17.984375 29.886719 C 17.984375 29.882812 17.984375 29.878906 17.988281 29.878906 C 17.996094 29.867188 18.007812 29.859375 18.019531 29.847656 L 20.175781 28.15625 L 13.449219 10.925781 L 9.179688 10.199219 C 9.179688 10.199219 9.175781 10.199219 9.175781 10.199219 C 8.726562 10.125 8.398438 9.707031 8.4375 9.253906 C 8.476562 8.800781 8.875 8.445312 9.328125 8.449219 Z M 17.757812 16.84375 L 19 20.023438 L 20.617188 20.023438 L 20.617188 16.914062 Z M 21.234375 16.929688 L 21.234375 20.023438 L 24.21875 20.023438 L 24.21875 17.007812 Z M 24.835938 17.019531 L 24.835938 20.023438 L 27.820312 20.023438 L 27.820312 17.09375 Z M 28.4375 17.109375 L 28.4375 20.023438 L 31.425781 20.023438 L 31.425781 17.183594 Z M 32.042969 17.199219 L 32.042969 20.023438 L 35.027344 20.023438 L 35.027344 17.277344 Z M 35.644531 17.289062 L 35.644531 20.023438 L 37.832031 20.023438 L 38.15625 17.351562 Z M 37.757812 20.636719 L 35.644531 20.636719 L 35.644531 23.429688 L 37.421875 23.429688 Z M 35.027344 20.636719 L 32.042969 20.636719 L 32.042969 23.429688 L 35.027344 23.429688 Z M 31.425781 20.636719 L 28.4375 20.636719 L 28.4375 23.429688 L 31.425781 23.429688 Z M 27.820312 20.636719 L 24.835938 20.636719 L 24.835938 23.429688 L 27.820312 23.429688 Z M 24.21875 20.636719 L 21.234375 20.636719 L 21.234375 23.429688 L 24.21875 23.429688 Z M 20.617188 20.636719 L 19.234375 20.636719 L 20.328125 23.429688 L 20.617188 23.429688 Z M 37.347656 24.046875 L 35.644531 24.046875 L 35.644531 26.050781 L 37.121094 25.933594 Z M 35.027344 24.046875 L 32.042969 24.046875 L 32.042969 26.335938 L 35.027344 26.097656 Z M 31.425781 24.046875 L 28.4375 24.046875 L 28.4375 26.621094 L 31.425781 26.386719 Z M 27.820312 24.046875 L 24.835938 24.046875 L 24.835938 26.910156 L 27.820312 26.671875 Z M 24.21875 24.046875 L 21.234375 24.046875 L 21.234375 25.746094 L 21.800781 27.199219 C 21.871094 27.160156 21.953125 27.140625 22.035156 27.132812 L 24.21875 26.960938 Z M 20.613281 24.046875 L 20.570312 24.046875 L 20.613281 24.171875 Z M 35.742188 35.375 C 35.15625 35.375 34.691406 35.839844 34.691406 36.421875 C 34.691406 37.003906 35.15625 37.464844 35.742188 37.464844 C 36.324219 37.464844 36.789062 37.003906 36.789062 36.421875 C 36.789062 35.839844 36.324219 35.375 35.742188 35.375 Z M 18.839844 35.375 C 18.257812 35.375 17.792969 35.839844 17.792969 36.421875 C 17.792969 37.003906 18.257812 37.464844 18.839844 37.464844 C 19.421875 37.464844 19.886719 37.003906 19.886719 36.421875 C 19.886719 35.839844 19.421875 35.375 18.839844 35.375 Z M 35.742188 35.871094 C 36.058594 35.871094 36.308594 36.125 36.308594 36.441406 C 36.308594 36.757812 36.058594 37.007812 35.742188 37.007812 C 35.425781 37.007812 35.171875 36.757812 35.171875 36.441406 C 35.171875 36.125 35.425781 35.871094 35.742188 35.871094 Z M 18.839844 35.871094 C 19.15625 35.871094 19.410156 36.125 19.410156 36.441406 C 19.410156 36.757812 19.15625 37.007812 18.839844 37.007812 C 18.523438 37.007812 18.269531 36.757812 18.269531 36.441406 C 18.269531 36.125 18.523438 35.871094 18.839844 35.871094 Z M 18.839844 35.871094 " fill-opacity="1" fill-rule="nonzero"/></g><g fill="#231f20" fill-opacity="1"><g transform="translate(47.470276, 50.58152)"><g><path d="M -6.03125 -2.609375 C -6.03125 -2.929688 -5.984375 -3.242188 -5.890625 -3.546875 C -5.796875 -3.859375 -5.707031 -4.085938 -5.625 -4.234375 L -5.484375 -4.453125 L -4.40625 -3.90625 C -4.425781 -3.863281 -4.457031 -3.800781 -4.5 -3.71875 C -4.550781 -3.644531 -4.613281 -3.503906 -4.6875 -3.296875 C -4.769531 -3.085938 -4.8125 -2.890625 -4.8125 -2.703125 C -4.8125 -2.484375 -4.757812 -2.3125 -4.65625 -2.1875 C -4.5625 -2.0625 -4.4375 -2 -4.28125 -2 C -4.195312 -2 -4.117188 -2.023438 -4.046875 -2.078125 C -3.984375 -2.140625 -3.910156 -2.238281 -3.828125 -2.375 C -3.742188 -2.519531 -3.675781 -2.644531 -3.625 -2.75 C -3.582031 -2.851562 -3.515625 -3.015625 -3.421875 -3.234375 C -3.253906 -3.617188 -3.03125 -3.945312 -2.75 -4.21875 C -2.476562 -4.488281 -2.160156 -4.625 -1.796875 -4.625 C -1.460938 -4.625 -1.164062 -4.5625 -0.90625 -4.4375 C -0.65625 -4.320312 -0.457031 -4.15625 -0.3125 -3.9375 C -0.164062 -3.726562 -0.0625 -3.492188 0 -3.234375 C 0.0703125 -2.972656 0.109375 -2.691406 0.109375 -2.390625 C 0.109375 -2.128906 0.0820312 -1.875 0.03125 -1.625 C -0.0195312 -1.382812 -0.0820312 -1.175781 -0.15625 -1 C -0.238281 -0.832031 -0.316406 -0.679688 -0.390625 -0.546875 C -0.472656 -0.421875 -0.539062 -0.328125 -0.59375 -0.265625 L -0.671875 -0.171875 L -1.8125 -0.84375 C -1.757812 -0.894531 -1.695312 -0.972656 -1.625 -1.078125 C -1.550781 -1.179688 -1.453125 -1.359375 -1.328125 -1.609375 C -1.203125 -1.867188 -1.140625 -2.097656 -1.140625 -2.296875 C -1.140625 -2.859375 -1.332031 -3.140625 -1.71875 -3.140625 C -1.800781 -3.140625 -1.878906 -3.117188 -1.953125 -3.078125 C -2.023438 -3.046875 -2.09375 -2.976562 -2.15625 -2.875 C -2.226562 -2.769531 -2.285156 -2.675781 -2.328125 -2.59375 C -2.367188 -2.519531 -2.429688 -2.390625 -2.515625 -2.203125 C -2.597656 -2.023438 -2.660156 -1.894531 -2.703125 -1.8125 C -2.878906 -1.445312 -3.097656 -1.164062 -3.359375 -0.96875 C -3.628906 -0.78125 -3.914062 -0.6875 -4.21875 -0.6875 C -4.757812 -0.6875 -5.195312 -0.878906 -5.53125 -1.265625 C -5.863281 -1.660156 -6.03125 -2.109375 -6.03125 -2.609375 Z M -6.03125 -2.609375 "/></g></g></g><g fill="#231f20" fill-opacity="1"><g transform="translate(47.470276, 45.749556)"><g><path d="M 0 -5.328125 L -3.515625 -5.046875 L -3.515625 -5.015625 L -0.03125 -3.796875 L -0.03125 -3 L -3.515625 -1.78125 L -3.515625 -1.75 L 0 -1.46875 L 0 -0.109375 L -5.9375 -0.640625 L -5.9375 -2.078125 L -2.515625 -3.40625 L -5.9375 -4.71875 L -5.9375 -6.15625 L 0 -6.6875 Z M 0 -5.328125 "/></g></g></g><g fill="#231f20" fill-opacity="1"><g transform="translate(47.470276, 38.947415)"><g><path d="M -5.9375 -3.4375 L 0 -5.84375 L 0 -4.390625 L -1.1875 -3.953125 L -1.1875 -1.6875 L 0 -1.25 L 0 0.203125 L -5.9375 -2.1875 Z M -2.375 -3.484375 L -4.09375 -2.828125 L -4.09375 -2.8125 L -2.375 -2.15625 Z M -2.375 -3.484375 "/></g></g></g><g fill="#231f20" fill-opacity="1"><g transform="translate(47.470276, 33.310124)"><g><path d="M -5.9375 -0.4375 L -5.9375 -2.546875 C -5.9375 -3.117188 -5.78125 -3.582031 -5.46875 -3.9375 C -5.164062 -4.300781 -4.734375 -4.484375 -4.171875 -4.484375 C -3.734375 -4.484375 -3.363281 -4.375 -3.0625 -4.15625 C -2.769531 -3.9375 -2.566406 -3.640625 -2.453125 -3.265625 L 0 -5.3125 L 0 -3.59375 L -2.34375 -1.78125 L 0 -1.78125 L 0 -0.4375 Z M -3.296875 -1.78125 L -3.296875 -1.9375 C -3.296875 -2.0625 -3.296875 -2.164062 -3.296875 -2.25 C -3.304688 -2.34375 -3.328125 -2.441406 -3.359375 -2.546875 C -3.390625 -2.660156 -3.429688 -2.75 -3.484375 -2.8125 C -3.535156 -2.882812 -3.609375 -2.941406 -3.703125 -2.984375 C -3.804688 -3.035156 -3.929688 -3.0625 -4.078125 -3.0625 C -4.222656 -3.0625 -4.34375 -3.035156 -4.4375 -2.984375 C -4.539062 -2.941406 -4.617188 -2.882812 -4.671875 -2.8125 C -4.722656 -2.75 -4.765625 -2.660156 -4.796875 -2.546875 C -4.828125 -2.441406 -4.84375 -2.34375 -4.84375 -2.25 C -4.851562 -2.164062 -4.859375 -2.0625 -4.859375 -1.9375 L -4.859375 -1.78125 Z M -3.296875 -1.78125 "/></g></g></g><g fill="#231f20" fill-opacity="1"><g transform="translate(47.470276, 28.161783)"><g><path d="M -4.75 -0.0625 L -5.9375 -0.0625 L -5.9375 -4.21875 L -4.75 -4.21875 L -4.75 -2.8125 L 0 -2.8125 L 0 -1.46875 L -4.75 -1.46875 Z M -4.75 -0.0625 "/></g></g></g><g fill="#231f20" fill-opacity="1"><g transform="translate(47.470276, 23.876289)"><g/></g></g><g fill="#231f20" fill-opacity="1"><g transform="translate(47.470276, 21.913308)"><g><path d="M -1.21875 -3.59375 C -1.21875 -3.789062 -1.25 -3.988281 -1.3125 -4.1875 C -1.375 -4.382812 -1.4375 -4.523438 -1.5 -4.609375 L -1.59375 -4.75 L -0.4375 -5.328125 C -0.425781 -5.304688 -0.40625 -5.28125 -0.375 -5.25 C -0.351562 -5.21875 -0.3125 -5.140625 -0.25 -5.015625 C -0.1875 -4.890625 -0.128906 -4.753906 -0.078125 -4.609375 C -0.0234375 -4.472656 0.015625 -4.289062 0.046875 -4.0625 C 0.0859375 -3.84375 0.109375 -3.613281 0.109375 -3.375 C 0.109375 -2.820312 -0.0234375 -2.300781 -0.296875 -1.8125 C -0.566406 -1.320312 -0.9375 -0.925781 -1.40625 -0.625 C -1.882812 -0.320312 -2.398438 -0.171875 -2.953125 -0.171875 C -3.367188 -0.171875 -3.769531 -0.257812 -4.15625 -0.4375 C -4.539062 -0.613281 -4.867188 -0.847656 -5.140625 -1.140625 C -5.410156 -1.429688 -5.625 -1.773438 -5.78125 -2.171875 C -5.945312 -2.566406 -6.03125 -2.96875 -6.03125 -3.375 C -6.03125 -3.757812 -5.984375 -4.113281 -5.890625 -4.4375 C -5.804688 -4.757812 -5.71875 -4.988281 -5.625 -5.125 L -5.484375 -5.328125 L -4.34375 -4.75 C -4.375 -4.71875 -4.40625 -4.664062 -4.4375 -4.59375 C -4.476562 -4.53125 -4.53125 -4.394531 -4.59375 -4.1875 C -4.664062 -3.988281 -4.703125 -3.789062 -4.703125 -3.59375 C -4.703125 -3.257812 -4.648438 -2.960938 -4.546875 -2.703125 C -4.441406 -2.453125 -4.300781 -2.25 -4.125 -2.09375 C -3.957031 -1.945312 -3.773438 -1.832031 -3.578125 -1.75 C -3.378906 -1.664062 -3.175781 -1.625 -2.96875 -1.625 C -2.519531 -1.625 -2.113281 -1.789062 -1.75 -2.125 C -1.394531 -2.46875 -1.21875 -2.957031 -1.21875 -3.59375 Z M -1.21875 -3.59375 "/></g></g></g><g fill="#231f20" fill-opacity="1"><g transform="translate(47.470276, 16.498924)"><g><path d="M -5.9375 -3.4375 L 0 -5.84375 L 0 -4.390625 L -1.1875 -3.953125 L -1.1875 -1.6875 L 0 -1.25 L 0 0.203125 L -5.9375 -2.1875 Z M -2.375 -3.484375 L -4.09375 -2.828125 L -4.09375 -2.8125 L -2.375 -2.15625 Z M -2.375 -3.484375 "/></g></g></g><g fill="#231f20" fill-opacity="1"><g transform="translate(47.470276, 10.861632)"><g><path d="M -5.9375 -0.4375 L -5.9375 -2.546875 C -5.9375 -3.117188 -5.78125 -3.582031 -5.46875 -3.9375 C -5.164062 -4.300781 -4.734375 -4.484375 -4.171875 -4.484375 C -3.734375 -4.484375 -3.363281 -4.375 -3.0625 -4.15625 C -2.769531 -3.9375 -2.566406 -3.640625 -2.453125 -3.265625 L 0 -5.3125 L 0 -3.59375 L -2.34375 -1.78125 L 0 -1.78125 L 0 -0.4375 Z M -3.296875 -1.78125 L -3.296875 -1.9375 C -3.296875 -2.0625 -3.296875 -2.164062 -3.296875 -2.25 C -3.304688 -2.34375 -3.328125 -2.441406 -3.359375 -2.546875 C -3.390625 -2.660156 -3.429688 -2.75 -3.484375 -2.8125 C -3.535156 -2.882812 -3.609375 -2.941406 -3.703125 -2.984375 C -3.804688 -3.035156 -3.929688 -3.0625 -4.078125 -3.0625 C -4.222656 -3.0625 -4.34375 -3.035156 -4.4375 -2.984375 C -4.539062 -2.941406 -4.617188 -2.882812 -4.671875 -2.8125 C -4.722656 -2.75 -4.765625 -2.660156 -4.796875 -2.546875 C -4.828125 -2.441406 -4.84375 -2.34375 -4.84375 -2.25 C -4.851562 -2.164062 -4.859375 -2.0625 -4.859375 -1.9375 L -4.859375 -1.78125 Z M -3.296875 -1.78125 "/></g></g></g><g fill="#231f20" fill-opacity="1"><g transform="translate(47.470276, 5.713292)"><g><path d="M -4.75 -0.0625 L -5.9375 -0.0625 L -5.9375 -4.21875 L -4.75 -4.21875 L -4.75 -2.8125 L 0 -2.8125 L 0 -1.46875 L -4.75 -1.46875 Z M -4.75 -0.0625 "/></g></g></g><g fill="#231f20" fill-opacity="1"><g transform="translate(7.539308, 46.351974)"><g><path d="M 0.546875 0 L 0.28125 0 C 0.238281 0 0.21875 -0.0195312 0.21875 -0.0625 L 0.21875 -1.15625 C 0.21875 -1.195312 0.238281 -1.21875 0.28125 -1.21875 L 0.578125 -1.21875 C 0.617188 -1.21875 0.640625 -1.195312 0.640625 -1.15625 L 0.640625 -1.0625 C 0.640625 -1 0.675781 -0.914062 0.75 -0.8125 C 0.820312 -0.71875 0.890625 -0.640625 0.953125 -0.578125 C 1.023438 -0.515625 1.125 -0.457031 1.25 -0.40625 C 1.375 -0.363281 1.503906 -0.34375 1.640625 -0.34375 C 1.878906 -0.34375 2.066406 -0.390625 2.203125 -0.484375 C 2.335938 -0.585938 2.40625 -0.734375 2.40625 -0.921875 C 2.40625 -1.015625 2.367188 -1.097656 2.296875 -1.171875 C 2.222656 -1.253906 2.125 -1.316406 2 -1.359375 C 1.875 -1.398438 1.738281 -1.4375 1.59375 -1.46875 C 1.445312 -1.507812 1.296875 -1.550781 1.140625 -1.59375 C 0.992188 -1.644531 0.859375 -1.703125 0.734375 -1.765625 C 0.617188 -1.835938 0.519531 -1.929688 0.4375 -2.046875 C 0.363281 -2.171875 0.328125 -2.316406 0.328125 -2.484375 C 0.328125 -2.742188 0.425781 -2.957031 0.625 -3.125 C 0.820312 -3.300781 1.085938 -3.390625 1.421875 -3.390625 C 1.847656 -3.390625 2.160156 -3.269531 2.359375 -3.03125 L 2.34375 -3.3125 C 2.34375 -3.351562 2.363281 -3.375 2.40625 -3.375 L 2.671875 -3.375 C 2.703125 -3.375 2.71875 -3.351562 2.71875 -3.3125 L 2.71875 -2.296875 C 2.71875 -2.253906 2.703125 -2.234375 2.671875 -2.234375 L 2.375 -2.234375 C 2.332031 -2.234375 2.3125 -2.253906 2.3125 -2.296875 L 2.3125 -2.421875 C 2.3125 -2.546875 2.238281 -2.675781 2.09375 -2.8125 C 1.957031 -2.945312 1.75 -3.015625 1.46875 -3.015625 C 1.257812 -3.015625 1.09375 -2.960938 0.96875 -2.859375 C 0.84375 -2.765625 0.78125 -2.640625 0.78125 -2.484375 C 0.78125 -2.378906 0.816406 -2.285156 0.890625 -2.203125 C 0.972656 -2.128906 1.078125 -2.066406 1.203125 -2.015625 C 1.328125 -1.972656 1.460938 -1.929688 1.609375 -1.890625 C 1.765625 -1.847656 1.914062 -1.800781 2.0625 -1.75 C 2.207031 -1.707031 2.34375 -1.648438 2.46875 -1.578125 C 2.59375 -1.515625 2.691406 -1.425781 2.765625 -1.3125 C 2.847656 -1.207031 2.890625 -1.078125 2.890625 -0.921875 C 2.890625 -0.640625 2.789062 -0.410156 2.59375 -0.234375 C 2.40625 -0.0546875 2.113281 0.03125 1.71875 0.03125 C 1.4375 0.03125 1.203125 -0.0234375 1.015625 -0.140625 C 0.828125 -0.253906 0.6875 -0.378906 0.59375 -0.515625 L 0.609375 -0.0625 C 0.609375 -0.0195312 0.585938 0 0.546875 0 Z M 0.546875 0 "/></g></g></g><g fill="#231f20" fill-opacity="1"><g transform="translate(10.661849, 46.351974)"><g><path d="M 2.671875 0 L 2.234375 0 C 2.097656 0 2.03125 -0.0664062 2.03125 -0.203125 L 2.03125 -1.4375 C 2.03125 -1.613281 1.984375 -1.75 1.890625 -1.84375 C 1.804688 -1.945312 1.679688 -2 1.515625 -2 C 1.378906 -2 1.273438 -1.976562 1.203125 -1.9375 C 1.140625 -1.90625 1.09375 -1.875 1.0625 -1.84375 C 1.03125 -1.8125 1.003906 -1.78125 0.984375 -1.75 C 0.941406 -1.695312 0.910156 -1.644531 0.890625 -1.59375 L 0.890625 -0.3125 L 1.140625 -0.3125 C 1.179688 -0.3125 1.203125 -0.296875 1.203125 -0.265625 L 1.203125 -0.0625 C 1.203125 -0.0195312 1.179688 0 1.140625 0 L 0.234375 0 C 0.191406 0 0.171875 -0.0195312 0.171875 -0.0625 L 0.171875 -0.265625 C 0.171875 -0.296875 0.191406 -0.3125 0.234375 -0.3125 L 0.5 -0.3125 L 0.5 -3.046875 L 0.234375 -3.046875 C 0.191406 -3.046875 0.171875 -3.066406 0.171875 -3.109375 L 0.171875 -3.3125 C 0.171875 -3.34375 0.191406 -3.359375 0.234375 -3.359375 L 0.828125 -3.359375 C 0.867188 -3.359375 0.890625 -3.34375 0.890625 -3.3125 L 0.890625 -2.265625 C 0.890625 -2.160156 0.882812 -2.066406 0.875 -1.984375 C 1.03125 -2.222656 1.273438 -2.34375 1.609375 -2.34375 C 1.859375 -2.34375 2.050781 -2.269531 2.1875 -2.125 C 2.332031 -1.976562 2.40625 -1.78125 2.40625 -1.53125 L 2.40625 -0.3125 L 2.671875 -0.3125 C 2.710938 -0.3125 2.734375 -0.296875 2.734375 -0.265625 L 2.734375 -0.0625 C 2.734375 -0.0195312 2.710938 0 2.671875 0 Z M 2.671875 0 "/></g></g></g><g fill="#231f20" fill-opacity="1"><g transform="translate(13.573411, 46.351974)"><g><path d="M 2.1875 -0.296875 C 1.96875 -0.078125 1.6875 0.03125 1.34375 0.03125 C 1 0.03125 0.71875 -0.078125 0.5 -0.296875 C 0.28125 -0.515625 0.171875 -0.800781 0.171875 -1.15625 C 0.171875 -1.519531 0.28125 -1.804688 0.5 -2.015625 C 0.726562 -2.234375 1.007812 -2.34375 1.34375 -2.34375 C 1.6875 -2.34375 1.96875 -2.234375 2.1875 -2.015625 C 2.40625 -1.804688 2.515625 -1.519531 2.515625 -1.15625 C 2.515625 -0.800781 2.40625 -0.515625 2.1875 -0.296875 Z M 0.578125 -1.15625 C 0.578125 -0.90625 0.648438 -0.695312 0.796875 -0.53125 C 0.941406 -0.375 1.125 -0.296875 1.34375 -0.296875 C 1.5625 -0.296875 1.742188 -0.375 1.890625 -0.53125 C 2.046875 -0.695312 2.125 -0.90625 2.125 -1.15625 C 2.125 -1.414062 2.046875 -1.625 1.890625 -1.78125 C 1.742188 -1.9375 1.5625 -2.015625 1.34375 -2.015625 C 1.132812 -2.015625 0.953125 -1.9375 0.796875 -1.78125 C 0.648438 -1.625 0.578125 -1.414062 0.578125 -1.15625 Z M 0.578125 -1.15625 "/></g></g></g><g fill="#231f20" fill-opacity="1"><g transform="translate(16.269303, 46.351974)"><g><path d="M 1.1875 1.0625 L 0.234375 1.0625 C 0.191406 1.0625 0.171875 1.039062 0.171875 1 L 0.171875 0.796875 C 0.171875 0.753906 0.191406 0.734375 0.234375 0.734375 L 0.5 0.734375 L 0.5 -2 L 0.25 -2 C 0.207031 -2 0.1875 -2.015625 0.1875 -2.046875 L 0.1875 -2.25 C 0.1875 -2.289062 0.207031 -2.3125 0.25 -2.3125 L 0.796875 -2.3125 C 0.835938 -2.3125 0.859375 -2.289062 0.859375 -2.25 L 0.859375 -1.875 C 0.921875 -2.007812 1.015625 -2.117188 1.140625 -2.203125 C 1.273438 -2.296875 1.441406 -2.34375 1.640625 -2.34375 C 1.953125 -2.34375 2.203125 -2.234375 2.390625 -2.015625 C 2.585938 -1.804688 2.6875 -1.523438 2.6875 -1.171875 C 2.6875 -0.816406 2.59375 -0.523438 2.40625 -0.296875 C 2.21875 -0.078125 1.960938 0.03125 1.640625 0.03125 C 1.441406 0.03125 1.28125 -0.0078125 1.15625 -0.09375 C 1.03125 -0.1875 0.9375 -0.296875 0.875 -0.421875 L 0.859375 -0.421875 C 0.867188 -0.328125 0.875 -0.257812 0.875 -0.21875 L 0.875 0.734375 L 1.1875 0.734375 C 1.226562 0.734375 1.25 0.753906 1.25 0.796875 L 1.25 1 C 1.25 1.039062 1.226562 1.0625 1.1875 1.0625 Z M 0.875 -1.140625 C 0.875 -0.867188 0.941406 -0.660156 1.078125 -0.515625 C 1.222656 -0.367188 1.394531 -0.296875 1.59375 -0.296875 C 1.800781 -0.296875 1.972656 -0.375 2.109375 -0.53125 C 2.242188 -0.6875 2.3125 -0.894531 2.3125 -1.15625 C 2.3125 -1.414062 2.242188 -1.625 2.109375 -1.78125 C 1.972656 -1.9375 1.800781 -2.015625 1.59375 -2.015625 C 1.394531 -2.015625 1.222656 -1.9375 1.078125 -1.78125 C 0.941406 -1.625 0.875 -1.410156 0.875 -1.140625 Z M 0.875 -1.140625 "/></g></g></g><g fill="#231f20" fill-opacity="1"><g transform="translate(19.143354, 46.351974)"><g/></g></g><g fill="#231f20" fill-opacity="1"><g transform="translate(20.610856, 46.351974)"><g><path d="M 0.546875 0 L 0.28125 0 C 0.238281 0 0.21875 -0.0195312 0.21875 -0.0625 L 0.21875 -1.15625 C 0.21875 -1.195312 0.238281 -1.21875 0.28125 -1.21875 L 0.578125 -1.21875 C 0.617188 -1.21875 0.640625 -1.195312 0.640625 -1.15625 L 0.640625 -1.0625 C 0.640625 -1 0.675781 -0.914062 0.75 -0.8125 C 0.820312 -0.71875 0.890625 -0.640625 0.953125 -0.578125 C 1.023438 -0.515625 1.125 -0.457031 1.25 -0.40625 C 1.375 -0.363281 1.503906 -0.34375 1.640625 -0.34375 C 1.878906 -0.34375 2.066406 -0.390625 2.203125 -0.484375 C 2.335938 -0.585938 2.40625 -0.734375 2.40625 -0.921875 C 2.40625 -1.015625 2.367188 -1.097656 2.296875 -1.171875 C 2.222656 -1.253906 2.125 -1.316406 2 -1.359375 C 1.875 -1.398438 1.738281 -1.4375 1.59375 -1.46875 C 1.445312 -1.507812 1.296875 -1.550781 1.140625 -1.59375 C 0.992188 -1.644531 0.859375 -1.703125 0.734375 -1.765625 C 0.617188 -1.835938 0.519531 -1.929688 0.4375 -2.046875 C 0.363281 -2.171875 0.328125 -2.316406 0.328125 -2.484375 C 0.328125 -2.742188 0.425781 -2.957031 0.625 -3.125 C 0.820312 -3.300781 1.085938 -3.390625 1.421875 -3.390625 C 1.847656 -3.390625 2.160156 -3.269531 2.359375 -3.03125 L 2.34375 -3.3125 C 2.34375 -3.351562 2.363281 -3.375 2.40625 -3.375 L 2.671875 -3.375 C 2.703125 -3.375 2.71875 -3.351562 2.71875 -3.3125 L 2.71875 -2.296875 C 2.71875 -2.253906 2.703125 -2.234375 2.671875 -2.234375 L 2.375 -2.234375 C 2.332031 -2.234375 2.3125 -2.253906 2.3125 -2.296875 L 2.3125 -2.421875 C 2.3125 -2.546875 2.238281 -2.675781 2.09375 -2.8125 C 1.957031 -2.945312 1.75 -3.015625 1.46875 -3.015625 C 1.257812 -3.015625 1.09375 -2.960938 0.96875 -2.859375 C 0.84375 -2.765625 0.78125 -2.640625 0.78125 -2.484375 C 0.78125 -2.378906 0.816406 -2.285156 0.890625 -2.203125 C 0.972656 -2.128906 1.078125 -2.066406 1.203125 -2.015625 C 1.328125 -1.972656 1.460938 -1.929688 1.609375 -1.890625 C 1.765625 -1.847656 1.914062 -1.800781 2.0625 -1.75 C 2.207031 -1.707031 2.34375 -1.648438 2.46875 -1.578125 C 2.59375 -1.515625 2.691406 -1.425781 2.765625 -1.3125 C 2.847656 -1.207031 2.890625 -1.078125 2.890625 -0.921875 C 2.890625 -0.640625 2.789062 -0.410156 2.59375 -0.234375 C 2.40625 -0.0546875 2.113281 0.03125 1.71875 0.03125 C 1.4375 0.03125 1.203125 -0.0234375 1.015625 -0.140625 C 0.828125 -0.253906 0.6875 -0.378906 0.59375 -0.515625 L 0.609375 -0.0625 C 0.609375 -0.0195312 0.585938 0 0.546875 0 Z M 0.546875 0 "/></g></g></g><g fill="#231f20" fill-opacity="1"><g transform="translate(23.733397, 46.351974)"><g><path d="M 4.125 0 L 3.6875 0 C 3.613281 0 3.554688 -0.015625 3.515625 -0.046875 C 3.484375 -0.078125 3.46875 -0.128906 3.46875 -0.203125 L 3.46875 -1.4375 C 3.46875 -1.613281 3.425781 -1.75 3.34375 -1.84375 C 3.257812 -1.945312 3.132812 -2 2.96875 -2 C 2.71875 -2 2.519531 -1.890625 2.375 -1.671875 C 2.394531 -1.617188 2.40625 -1.554688 2.40625 -1.484375 L 2.40625 -0.3125 L 2.671875 -0.3125 C 2.710938 -0.3125 2.734375 -0.296875 2.734375 -0.265625 L 2.734375 -0.0625 C 2.734375 -0.0195312 2.710938 0 2.671875 0 L 1.78125 0 C 1.738281 0 1.71875 -0.0195312 1.71875 -0.0625 L 1.71875 -0.265625 C 1.71875 -0.296875 1.738281 -0.3125 1.78125 -0.3125 L 2.03125 -0.3125 L 2.03125 -1.4375 C 2.03125 -1.613281 1.984375 -1.75 1.890625 -1.84375 C 1.804688 -1.945312 1.679688 -2 1.515625 -2 C 1.378906 -2 1.273438 -1.976562 1.203125 -1.9375 C 1.140625 -1.90625 1.09375 -1.875 1.0625 -1.84375 C 1.03125 -1.8125 1.003906 -1.78125 0.984375 -1.75 C 0.941406 -1.695312 0.910156 -1.644531 0.890625 -1.59375 L 0.890625 -0.3125 L 1.109375 -0.3125 C 1.148438 -0.3125 1.171875 -0.296875 1.171875 -0.265625 L 1.171875 -0.0625 C 1.171875 -0.0195312 1.148438 0 1.109375 0 L 0.234375 0 C 0.191406 0 0.171875 -0.0195312 0.171875 -0.0625 L 0.171875 -0.265625 C 0.171875 -0.296875 0.191406 -0.3125 0.234375 -0.3125 L 0.5 -0.3125 L 0.5 -2 L 0.234375 -2 C 0.191406 -2 0.171875 -2.015625 0.171875 -2.046875 L 0.171875 -2.25 C 0.171875 -2.289062 0.191406 -2.3125 0.234375 -2.3125 L 0.703125 -2.3125 C 0.753906 -2.3125 0.789062 -2.300781 0.8125 -2.28125 C 0.832031 -2.257812 0.84375 -2.222656 0.84375 -2.171875 L 0.84375 -1.9375 L 0.859375 -1.9375 C 1.015625 -2.207031 1.265625 -2.34375 1.609375 -2.34375 C 1.953125 -2.34375 2.1875 -2.210938 2.3125 -1.953125 C 2.488281 -2.210938 2.738281 -2.34375 3.0625 -2.34375 C 3.3125 -2.34375 3.503906 -2.269531 3.640625 -2.125 C 3.785156 -1.976562 3.859375 -1.78125 3.859375 -1.53125 L 3.859375 -0.3125 L 4.125 -0.3125 C 4.164062 -0.3125 4.1875 -0.296875 4.1875 -0.265625 L 4.1875 -0.0625 C 4.1875 -0.0195312 4.164062 0 4.125 0 Z M 4.125 0 "/></g></g></g><g fill="#231f20" fill-opacity="1"><g transform="translate(28.098391, 46.351974)"><g><path d="M 2.484375 0 L 2.078125 0 C 1.941406 0 1.875 -0.0664062 1.875 -0.203125 L 1.875 -0.4375 L 1.859375 -0.4375 C 1.628906 -0.125 1.328125 0.03125 0.953125 0.03125 C 0.722656 0.03125 0.535156 -0.0234375 0.390625 -0.140625 C 0.242188 -0.253906 0.171875 -0.410156 0.171875 -0.609375 C 0.171875 -0.867188 0.28125 -1.054688 0.5 -1.171875 C 0.726562 -1.296875 1.039062 -1.359375 1.4375 -1.359375 L 1.828125 -1.359375 L 1.828125 -1.421875 C 1.828125 -1.804688 1.625 -2 1.21875 -2 C 1.03125 -2 0.894531 -1.976562 0.8125 -1.9375 C 0.726562 -1.90625 0.664062 -1.878906 0.625 -1.859375 C 0.59375 -1.835938 0.566406 -1.820312 0.546875 -1.8125 C 0.492188 -1.769531 0.457031 -1.765625 0.4375 -1.796875 L 0.3125 -1.96875 C 0.289062 -1.988281 0.289062 -2.015625 0.3125 -2.046875 C 0.375 -2.109375 0.484375 -2.171875 0.640625 -2.234375 C 0.804688 -2.304688 1.003906 -2.34375 1.234375 -2.34375 C 1.890625 -2.34375 2.21875 -2.03125 2.21875 -1.40625 L 2.21875 -0.3125 L 2.484375 -0.3125 C 2.515625 -0.3125 2.53125 -0.296875 2.53125 -0.265625 L 2.53125 -0.0625 C 2.53125 -0.0195312 2.515625 0 2.484375 0 Z M 1.828125 -1.078125 L 1.453125 -1.078125 C 1.273438 -1.078125 1.125 -1.066406 1 -1.046875 C 0.882812 -1.023438 0.785156 -0.984375 0.703125 -0.921875 C 0.617188 -0.859375 0.578125 -0.769531 0.578125 -0.65625 C 0.578125 -0.550781 0.617188 -0.460938 0.703125 -0.390625 C 0.796875 -0.328125 0.914062 -0.296875 1.0625 -0.296875 C 1.363281 -0.296875 1.617188 -0.429688 1.828125 -0.703125 Z M 1.828125 -1.078125 "/></g></g></g><g fill="#231f20" fill-opacity="1"><g transform="translate(30.817725, 46.351974)"><g><path d="M 1.140625 0 L 0.234375 0 C 0.191406 0 0.171875 -0.0195312 0.171875 -0.0625 L 0.171875 -0.265625 C 0.171875 -0.296875 0.191406 -0.3125 0.234375 -0.3125 L 0.5 -0.3125 L 0.5 -2 L 0.234375 -2 C 0.191406 -2 0.171875 -2.015625 0.171875 -2.046875 L 0.171875 -2.25 C 0.171875 -2.289062 0.191406 -2.3125 0.234375 -2.3125 L 0.78125 -2.3125 C 0.820312 -2.3125 0.84375 -2.289062 0.84375 -2.25 L 0.84375 -1.671875 L 0.859375 -1.671875 C 0.867188 -1.710938 0.898438 -1.773438 0.953125 -1.859375 C 1.015625 -1.953125 1.078125 -2.023438 1.140625 -2.078125 C 1.210938 -2.140625 1.3125 -2.191406 1.4375 -2.234375 C 1.5625 -2.285156 1.703125 -2.3125 1.859375 -2.3125 C 1.898438 -2.3125 1.921875 -2.289062 1.921875 -2.25 L 1.921875 -2 C 1.921875 -1.96875 1.898438 -1.953125 1.859375 -1.953125 L 1.765625 -1.953125 C 1.492188 -1.953125 1.28125 -1.863281 1.125 -1.6875 C 0.96875 -1.519531 0.890625 -1.328125 0.890625 -1.109375 L 0.890625 -0.3125 L 1.140625 -0.3125 C 1.179688 -0.3125 1.203125 -0.296875 1.203125 -0.265625 L 1.203125 -0.0625 C 1.203125 -0.0195312 1.179688 0 1.140625 0 Z M 1.140625 0 "/></g></g></g><g fill="#231f20" fill-opacity="1"><g transform="translate(32.791583, 46.351974)"><g><path d="M 1.75 -0.234375 C 1.757812 -0.222656 1.765625 -0.207031 1.765625 -0.1875 C 1.765625 -0.175781 1.753906 -0.164062 1.734375 -0.15625 C 1.597656 -0.03125 1.425781 0.03125 1.21875 0.03125 C 1.007812 0.03125 0.835938 -0.0351562 0.703125 -0.171875 C 0.566406 -0.304688 0.5 -0.503906 0.5 -0.765625 L 0.5 -2 L 0.25 -2 C 0.195312 -2 0.171875 -2.015625 0.171875 -2.046875 L 0.171875 -2.25 C 0.171875 -2.289062 0.195312 -2.3125 0.25 -2.3125 L 0.5 -2.3125 L 0.5 -2.78125 C 0.5 -2.820312 0.523438 -2.84375 0.578125 -2.84375 L 0.828125 -2.84375 C 0.867188 -2.84375 0.890625 -2.820312 0.890625 -2.78125 L 0.890625 -2.3125 L 1.484375 -2.3125 C 1.535156 -2.3125 1.5625 -2.289062 1.5625 -2.25 L 1.5625 -2.046875 C 1.5625 -2.015625 1.535156 -2 1.484375 -2 L 0.890625 -2 L 0.890625 -0.78125 C 0.890625 -0.625 0.925781 -0.503906 1 -0.421875 C 1.070312 -0.335938 1.164062 -0.296875 1.28125 -0.296875 C 1.394531 -0.296875 1.484375 -0.328125 1.546875 -0.390625 C 1.578125 -0.421875 1.601562 -0.421875 1.625 -0.390625 Z M 1.75 -0.234375 "/></g></g></g><g fill="#231f20" fill-opacity="1"><g transform="translate(34.67167, 46.351974)"><g><path d="M 1.140625 0 L 0.234375 0 C 0.191406 0 0.171875 -0.0195312 0.171875 -0.0625 L 0.171875 -0.265625 C 0.171875 -0.296875 0.191406 -0.3125 0.234375 -0.3125 L 0.5 -0.3125 L 0.5 -3.046875 L 0.234375 -3.046875 C 0.191406 -3.046875 0.171875 -3.066406 0.171875 -3.109375 L 0.171875 -3.3125 C 0.171875 -3.34375 0.191406 -3.359375 0.234375 -3.359375 L 0.765625 -3.359375 C 0.847656 -3.359375 0.890625 -3.320312 0.890625 -3.25 L 0.890625 -0.3125 L 1.140625 -0.3125 C 1.179688 -0.3125 1.203125 -0.296875 1.203125 -0.265625 L 1.203125 -0.0625 C 1.203125 -0.0195312 1.179688 0 1.140625 0 Z M 1.140625 0 "/></g></g></g><g fill="#231f20" fill-opacity="1"><g transform="translate(36.045401, 46.351974)"><g><path d="M 1.21875 -0.046875 C 1.175781 -0.046875 1.140625 -0.0859375 1.109375 -0.171875 L 0.390625 -2 L 0.125 -2 C 0.09375 -2 0.078125 -2.015625 0.078125 -2.046875 L 0.078125 -2.25 C 0.078125 -2.289062 0.09375 -2.3125 0.125 -2.3125 L 0.96875 -2.3125 C 1.007812 -2.3125 1.03125 -2.289062 1.03125 -2.25 L 1.03125 -2.046875 C 1.03125 -2.015625 1.007812 -2 0.96875 -2 L 0.78125 -2 L 1.390625 -0.40625 L 1.953125 -2 L 1.75 -2 C 1.707031 -2 1.6875 -2.015625 1.6875 -2.046875 L 1.6875 -2.25 C 1.6875 -2.289062 1.707031 -2.3125 1.75 -2.3125 L 2.625 -2.3125 C 2.65625 -2.3125 2.671875 -2.289062 2.671875 -2.25 L 2.671875 -2.046875 C 2.671875 -2.015625 2.65625 -2 2.625 -2 L 2.359375 -2 L 1.53125 0.296875 C 1.425781 0.578125 1.316406 0.78125 1.203125 0.90625 C 1.085938 1.03125 0.929688 1.09375 0.734375 1.09375 C 0.546875 1.09375 0.382812 1.035156 0.25 0.921875 C 0.21875 0.890625 0.210938 0.859375 0.234375 0.828125 L 0.359375 0.6875 C 0.390625 0.65625 0.414062 0.648438 0.4375 0.671875 C 0.507812 0.734375 0.597656 0.765625 0.703125 0.765625 C 0.804688 0.765625 0.890625 0.726562 0.953125 0.65625 C 1.023438 0.582031 1.09375 0.460938 1.15625 0.296875 L 1.28125 -0.046875 Z M 1.21875 -0.046875 "/></g></g></g></svg>